<?xml version="1.0"?>
<svg xmlns="http://www.w3.org/2000/svg" xmlns:xlink="http://www.w3.org/1999/xlink" width="512" height="512" viewBox="0 0 512 512"><defs><linearGradient id="a" data-name="New Gradient Swatch 1" x1="-49.507" y1="440.507" x2="437.49" y2="-46.49" gradientUnits="userSpaceOnUse"><stop offset="0" stop-color="#003f8a"/><stop offset="0.518" stop-color="#00d7df"/><stop offset="1" stop-color="#006df0"/></linearGradient><linearGradient id="c" x1="47.773" y1="537.788" x2="534.771" y2="50.79" xlink:href="#a"/><linearGradient id="d" x1="-89.007" y1="401.007" x2="397.99" y2="-85.99" xlink:href="#a"/><linearGradient id="e" x1="70.993" y1="561.007" x2="557.99" y2="74.01" xlink:href="#a"/><linearGradient id="f" x1="-173.007" y1="317.007" x2="313.99" y2="-169.99" xlink:href="#a"/></defs><g><path d="M176,159a24.039,24.039,0,0,0,22.624-16h18.181a39.764,39.764,0,0,0,5.839,14.042L209.782,169.9a24.054,24.054,0,1,0,11.287,11.341l12.889-12.889A39.764,39.764,0,0,0,248,174.2v18.181a24,24,0,1,0,16,0V174.2a39.764,39.764,0,0,0,14.042-5.839l12.889,12.889A23.874,23.874,0,1,0,302.218,169.9l-12.862-12.862A39.764,39.764,0,0,0,295.2,143h18.181a24,24,0,1,0,0-16H295.2a39.764,39.764,0,0,0-5.839-14.042L302.218,100.1a24.032,24.032,0,0,0,27.32-4.694h0a24,24,0,1,0-38.608-6.647l-12.889,12.889A39.764,39.764,0,0,0,264,95.805V77.624a24,24,0,1,0-16,0V95.805a39.764,39.764,0,0,0-14.042,5.839L221.069,88.755A23.985,23.985,0,1,0,182.461,95.4h0a24.032,24.032,0,0,0,27.32,4.694l12.862,12.862A39.764,39.764,0,0,0,216.805,127H198.624A24,24,0,1,0,176,159Zm80-48a24,24,0,1,1-24,24A24.028,24.028,0,0,1,256,111Zm-50.912,86.226a8,8,0,1,1,0-11.314A7.947,7.947,0,0,1,205.088,197.226ZM256,223a8,8,0,1,1,8-8A8.009,8.009,0,0,1,256,223Zm62.226-37.088a8,8,0,1,1-5.658-2.344A7.95,7.95,0,0,1,318.226,185.912ZM336,127a8,8,0,1,1-8,8A8.009,8.009,0,0,1,336,127ZM306.912,72.774a8,8,0,0,1,11.314,11.314h0a8,8,0,1,1-11.313-11.314ZM256,47a8,8,0,1,1-8,8A8.009,8.009,0,0,1,256,47ZM193.775,84.088h0a8,8,0,1,1,5.658,2.344A7.95,7.95,0,0,1,193.774,84.088ZM176,127a8,8,0,1,1-8,8A8.009,8.009,0,0,1,176,127Z" fill="url(#a)"/><circle cx="264" cy="127" r="8" fill="url(#a)"/><path d="M428.66,344.15,354.01,217.23a128,128,0,1,0-196.02,0L83.34,344.15A79.971,79.971,0,0,0,51.76,495.29a9.19,9.19,0,0,0,1.25.64,79.89,79.89,0,0,0,69.98,0,9.19,9.19,0,0,0,1.25-.64A80.162,80.162,0,0,0,167.6,432h8.8a80.162,80.162,0,0,0,43.36,63.29,9.19,9.19,0,0,0,1.25.64,79.89,79.89,0,0,0,69.98,0,9.19,9.19,0,0,0,1.25-.64A80.162,80.162,0,0,0,335.6,432H344c.13,0,.27-.01.4-.02a80.157,80.157,0,0,0,43.36,63.31,9.19,9.19,0,0,0,1.25.64,79.89,79.89,0,0,0,69.98,0,9.19,9.19,0,0,0,1.25-.64,79.971,79.971,0,0,0-31.58-151.14ZM144,135a112,112,0,1,1,195.84,74.17,8.016,8.016,0,0,0-3,3.26,111.8,111.8,0,0,1-161.68,0,8.016,8.016,0,0,0-3-3.26A111.537,111.537,0,0,1,144,135ZM112,483.31a63.752,63.752,0,0,1-48,0V464a24,24,0,0,1,48,0ZM72,400a16,16,0,1,1,16,16A16.021,16.021,0,0,1,72,400Zm56,73.91V464a39.988,39.988,0,0,0-23.64-36.51,32,32,0,1,0-32.7.01A40.048,40.048,0,0,0,48,464v9.91A63.966,63.966,0,0,1,87.98,360h.03A63.966,63.966,0,0,1,128,473.91ZM167.6,416a80.17,80.17,0,0,0-66.28-70.87l68.17-115.88A127.528,127.528,0,0,0,248,262.74V344.4A80.149,80.149,0,0,0,176.4,416ZM280,483.31a63.752,63.752,0,0,1-48,0V464a24,24,0,0,1,48,0ZM240,400a16,16,0,1,1,16,16A16.021,16.021,0,0,1,240,400Zm56,73.91V464a39.988,39.988,0,0,0-23.64-36.51,32,32,0,1,0-32.7.01A40.048,40.048,0,0,0,216,464v9.91a64,64,0,1,1,80,0ZM344,416h-8.4A80.149,80.149,0,0,0,264,344.4V262.74a127.528,127.528,0,0,0,78.51-33.49l68.17,115.88a80.16,80.16,0,0,0-66.28,70.89C344.27,416.01,344.13,416,344,416Zm104,67.31a63.752,63.752,0,0,1-48,0V464a24,24,0,0,1,48,0ZM408,400a16,16,0,1,1,16,16A16.021,16.021,0,0,1,408,400Zm56,73.91V464a39.988,39.988,0,0,0-23.64-36.51,32,32,0,1,0-32.7.01A40.048,40.048,0,0,0,384,464v9.91A63.966,63.966,0,0,1,423.99,360h.03A63.966,63.966,0,0,1,464,473.91Z" fill="url(#c)"/><path d="M32,256H44.686l-3.314,3.314a8,8,0,1,0,11.315,11.313L56,267.314V280a8,8,0,0,0,16,0V267.314l3.313,3.313a8,8,0,0,0,11.315-11.313L83.314,256H96a8,8,0,0,0,0-16H83.314l3.314-3.314a8,8,0,1,0-11.315-11.313L72,228.686V216a8,8,0,0,0-16,0v12.686l-3.313-3.313a8,8,0,1,0-11.315,11.313L44.686,240H32a8,8,0,0,0,0,16Z" fill="url(#d)"/><path d="M432,176h12.686l-3.314,3.314a8,8,0,1,0,11.315,11.313L456,187.314V200a8,8,0,0,0,16,0V187.314l3.313,3.313a8,8,0,1,0,11.315-11.313L483.314,176H496a8,8,0,0,0,0-16H483.314l3.314-3.314a8,8,0,1,0-11.315-11.313L472,148.686V136a8,8,0,0,0-16,0v12.686l-3.313-3.313a8,8,0,1,0-11.315,11.313L444.686,160H432a8,8,0,0,0,0,16Z" fill="url(#e)"/><path d="M64,56H76.686l-3.314,3.314A8,8,0,1,0,84.687,70.627L88,67.314V80a8,8,0,0,0,16,0V67.314l3.313,3.313a8,8,0,1,0,11.315-11.313L115.314,56H128a8,8,0,0,0,0-16H115.314l3.314-3.314a8,8,0,1,0-11.315-11.313L104,28.686V16a8,8,0,0,0-16,0V28.686l-3.313-3.313A8,8,0,1,0,73.372,36.686L76.686,40H64a8,8,0,0,0,0,16Z" fill="url(#f)"/></g></svg>
